<svg xmlns="http://www.w3.org/2000/svg" xmlns:xlink="http://www.w3.org/1999/xlink" width="12.788" height="12.823" viewBox="0 0 12.788 12.823">
  <defs>
    <clipPath id="clip-path">
      <rect id="Rectangle_581" data-name="Rectangle 581" width="12.788" height="12.823" transform="translate(0 0)" fill="none"/>
    </clipPath>
  </defs>
  <g id="Group_646" data-name="Group 646" transform="translate(0 0)">
    <g id="Group_645" data-name="Group 645" transform="translate(0 0)" clip-path="url(#clip-path)">
      <path id="Path_552" data-name="Path 552" d="M6.4,0a6.411,6.411,0,1,1-2.65,12.256.787.787,0,0,0-.449-.044c-.87.184-1.737.388-2.605.581a.524.524,0,0,1-.669-.669c.2-.876.4-1.751.59-2.629a.7.7,0,0,0-.041-.4A6.4,6.4,0,0,1,5.189.144C5.587.067,6,.047,6.4,0M6.384,5.88c.874,0,1.748,0,2.623,0a.528.528,0,1,0-.013-1.05q-2.585,0-5.17,0c-.379,0-.625.215-.621.533s.247.516.634.516q1.274,0,2.548,0M5.721,6.971c-.633,0-1.266,0-1.9,0-.381,0-.626.212-.62.529a.545.545,0,0,0,.611.519q1.911,0,3.823,0c.384,0,.618-.209.614-.536s-.227-.512-.605-.513c-.641,0-1.282,0-1.924,0" transform="translate(0 0)" fill="#5d5d5d"/>
    </g>
  </g>
</svg>
