<svg id="Group_192" data-name="Group 192" xmlns="http://www.w3.org/2000/svg" xmlns:xlink="http://www.w3.org/1999/xlink" width="15.237" height="12.823" viewBox="0 0 15.237 12.823">
  <defs>
    <clipPath id="clip-path">
      <rect id="Rectangle_186" data-name="Rectangle 186" width="15.237" height="12.823" fill="none"/>
    </clipPath>
  </defs>
  <g id="Group_148" data-name="Group 148" transform="translate(0 0)" clip-path="url(#clip-path)">
    <path id="Path_379" data-name="Path 379" d="M15.24,16.934c0,2.615.009,5.165-.005,7.714a1.478,1.478,0,0,1-1.312,1.5c-.079.007-.158,0-.238,0H1.578c-1,0-1.57-.635-1.57-1.755q0-3.541,0-7.081v-.377c.122.083.213.14.3.2l5.862,4.389a2.129,2.129,0,0,0,2.923-.008L14.9,17.172c.1-.072.2-.139.335-.238" transform="translate(-0.006 -13.329)" fill="#5d5d5d"/>
    <path id="Path_380" data-name="Path 380" d="M7.631,0c2.052,0,4.1-.006,6.156,0a1.516,1.516,0,0,1,1.374,2.01,1.76,1.76,0,0,1-.557.827C12.549,4.412,10.476,5.955,8.4,7.5a1.23,1.23,0,0,1-1.591-.015Q3.73,5.183.654,2.873A1.585,1.585,0,0,1,.06,1.138,1.432,1.432,0,0,1,1.416.005C2.625,0,3.835,0,5.044,0H7.631" transform="translate(0 0)" fill="#5d5d5d"/>
  </g>
</svg>
