<svg id="Group_387" data-name="Group 387" xmlns="http://www.w3.org/2000/svg" xmlns:xlink="http://www.w3.org/1999/xlink" width="11.66" height="13.972" viewBox="0 0 11.66 13.972">
  <defs>
    <clipPath id="clip-path">
      <rect id="Rectangle_319" data-name="Rectangle 319" width="11.66" height="13.972" transform="translate(0 0)" fill="none"/>
    </clipPath>
  </defs>
  <g id="Group_385" data-name="Group 385" transform="translate(0 0)" clip-path="url(#clip-path)">
    <path id="Path_529" data-name="Path 529" d="M9.319,2.321H8.158c0-.172,0-.332,0-.492A.6.6,0,0,0,7.5,1.163q-2.836-.006-5.672,0a.575.575,0,0,0-.652.633q0,4.841,0,9.681c0,.036.006.072.011.133H8.145c.008-.169.016-.338.024-.528H9.349a11.492,11.492,0,0,1-.117,1.637,1.647,1.647,0,0,1-1.6,1.245q-2.959.014-5.918,0A1.741,1.741,0,0,1,0,12.167C0,10.831,0,9.495,0,8.158Q0,5.05,0,1.941A1.772,1.772,0,0,1,1.952,0H7.406A1.757,1.757,0,0,1,9.319,1.917v.4" transform="translate(0 0)" fill="#5d5d5d"/>
    <path id="Path_530" data-name="Path 530" d="M47.216,27.4c0-.284,0-.554,0-.825a1.453,1.453,0,1,1,2.9-.01c.005.27,0,.541,0,.824.077.012.129.023.18.028a1,1,0,0,1,.986,1c.02.69.021,1.381,0,2.071a.991.991,0,0,1-1.046.993q-1.567.011-3.134,0a1,1,0,0,1-1.051-1.067c-.006-.59,0-1.181,0-1.771,0-.822.306-1.161,1.16-1.242m2.028,0c0-.313.011-.61,0-.905a.573.573,0,0,0-1.138-.046c-.026.312-.006.627-.006.952Z" transform="translate(-39.644 -21.597)" fill="#5d5d5d"/>
  </g>
</svg>
