<svg id="Group_232" data-name="Group 232" xmlns="http://www.w3.org/2000/svg" xmlns:xlink="http://www.w3.org/1999/xlink" width="18.101" height="18.168" viewBox="0 0 18.101 18.168">
  <defs>
    <clipPath id="clip-path">
      <rect id="Rectangle_260" data-name="Rectangle 260" width="18.101" height="18.168" fill="none"/>
    </clipPath>
  </defs>
  <g id="Group_231" data-name="Group 231" clip-path="url(#clip-path)">
    <path id="Path_449" data-name="Path 449" d="M9.038,18.168A9.085,9.085,0,0,1,8.085.054,9.017,9.017,0,0,1,18.059,8.1a11.545,11.545,0,0,1,0,1.94.837.837,0,0,1-.992.81.881.881,0,0,1-.754-1.02A7.3,7.3,0,1,0,12.8,15.343a1.579,1.579,0,0,1,.854-.211.737.737,0,0,1,.65.657.848.848,0,0,1-.4.943,8.721,8.721,0,0,1-3.209,1.246c-.544.094-1.1.129-1.649.19" transform="translate(0 0)" fill="#3d7dda"/>
    <path id="Path_450" data-name="Path 450" d="M68.272,85.457l4.072-4.074c.528-.528,1.041-.6,1.445-.205.419.41.349.919-.2,1.471L69.06,87.179a.939.939,0,0,1-1.573,0q-.939-.937-1.876-1.876c-.513-.514-.575-1.014-.177-1.42s.929-.341,1.445.177c.456.457.911.917,1.393,1.4" transform="translate(-60.559 -75.196)" fill="#3d7dda"/>
  </g>
</svg>
